HIERARCHY
ROOT Hips
{
  OFFSET 355.919 88.6782 209.25
  CHANNELS 6 Xposition Yposition Zposition Zrotation Xrotation Yrotation
  JOINT RightUpLeg
  {
    OFFSET -9.26382 -1.55446 0.00844472
    CHANNELS 6 Xposition Yposition Zposition Zrotation Xrotation Yrotation
    JOINT RightLeg
    {
      OFFSET 0.0144986 -41.8881 0.0482793
      CHANNELS 6 Xposition Yposition Zposition Zrotation Xrotation Yrotation
      JOINT RightFoot
      {
        OFFSET 0.175356 -43.1511 -0.251331
        CHANNELS 6 Xposition Yposition Zposition Zrotation Xrotation Yrotation
        End Site
        {
          OFFSET 0 -7.69 17.5
        }
      }
    }
  }
  JOINT LeftUpLeg
  {
    OFFSET 9.28103 -1.62168 -0.024346
    CHANNELS 6 Xposition Yposition Zposition Zrotation Xrotation Yrotation
    JOINT LeftLeg
    {
      OFFSET 0.0683869 -41.8854 -0.0100271
      CHANNELS 6 Xposition Yposition Zposition Zrotation Xrotation Yrotation
      JOINT LeftFoot
      {
        OFFSET 0.178697 -40.5226 -0.0480906
        CHANNELS 6 Xposition Yposition Zposition Zrotation Xrotation Yrotation
        End Site
        {
          OFFSET 0 -7.69 17.5
        }
      }
    }
  }
  JOINT Spine
  {
    OFFSET 0.0359255 14.2986 0.00976463
    CHANNELS 6 Xposition Yposition Zposition Zrotation Xrotation Yrotation
    JOINT Spine1
    {
      OFFSET 0.0301978 9.70929 0.00161527
      CHANNELS 6 Xposition Yposition Zposition Zrotation Xrotation Yrotation
      JOINT Spine2
      {
        OFFSET 0.0345486 10.1164 0.0148506
        CHANNELS 6 Xposition Yposition Zposition Zrotation Xrotation Yrotation
        JOINT Spine3
        {
          OFFSET 0.0278231 9.7233 0.0199686
          CHANNELS 6 Xposition Yposition Zposition Zrotation Xrotation Yrotation
          JOINT Neck
          {
            OFFSET 0.0279954 10.3864 0.0305175
            CHANNELS 6 Xposition Yposition Zposition Zrotation Xrotation Yrotation
            JOINT Head
            {
              OFFSET 0.00588751 9.4705 0.0157915
              CHANNELS 6 Xposition Yposition Zposition Zrotation Xrotation Yrotation
              End Site
              {
                OFFSET 0 15.95 0
              }
            }
          }
          JOINT RightShoulder
          {
            OFFSET -3.17841 6.92762 0.014735
            CHANNELS 6 Xposition Yposition Zposition Zrotation Xrotation Yrotation
            JOINT RightArm
            {
              OFFSET -12.7694 0.00449118 0.0308372
              CHANNELS 6 Xposition Yposition Zposition Zrotation Xrotation Yrotation
              JOINT RightForeArm
              {
                OFFSET -26.5029 -0.053552 0.0628787
                CHANNELS 6 Xposition Yposition Zposition Zrotation Xrotation Yrotation
                JOINT RightHand
                {
                  OFFSET -26.0012 -0.0444617 0.0174965
                  CHANNELS 6 Xposition Yposition Zposition Zrotation Xrotation Yrotation
                  JOINT RightHandThumb1
                  {
                    OFFSET -2.48905 0.190105 3.12053
                    CHANNELS 6 Xposition Yposition Zposition Zrotation Xrotation Yrotation
                    JOINT RightHandThumb2
                    {
                      OFFSET -3.68274 0 0
                      CHANNELS 6 Xposition Yposition Zposition Zrotation Xrotation Yrotation
                      JOINT RightHandThumb3
                      {
                        OFFSET -2.55832 0 0
                        CHANNELS 6 Xposition Yposition Zposition Zrotation Xrotation Yrotation
                        End Site
                        {
                          OFFSET -2.194 0 0
                        }
                      }
                    }
                  }
                  JOINT RightInHandIndex
                  {
                    OFFSET -3.22368 0.508421 1.97842
                    CHANNELS 6 Xposition Yposition Zposition Zrotation Xrotation Yrotation
                    JOINT RightHandIndex1
                    {
                      OFFSET -5.21684 -0.091368 0.999158
                      CHANNELS 6 Xposition Yposition Zposition Zrotation Xrotation Yrotation
                      JOINT RightHandIndex2
                      {
                        OFFSET -3.61937 0 0
                        CHANNELS 6 Xposition Yposition Zposition Zrotation Xrotation Yrotation
                        JOINT RightHandIndex3
                        {
                          OFFSET -2.0521 0 0
                          CHANNELS 6 Xposition Yposition Zposition Zrotation Xrotation Yrotation
                          End Site
                          {
                            OFFSET -1.805 0 0
                          }
                        }
                      }
                    }
                  }
                  JOINT RightInHandMiddle
                  {
                    OFFSET -3.38211 0.517263 0.756737
                    CHANNELS 6 Xposition Yposition Zposition Zrotation Xrotation Yrotation
                    JOINT RightHandMiddle1
                    {
                      OFFSET -5.17411 -0.084 0.313895
                      CHANNELS 6 Xposition Yposition Zposition Zrotation Xrotation Yrotation
                      JOINT RightHandMiddle2
                      {
                        OFFSET -3.94947 0 0
                        CHANNELS 6 Xposition Yposition Zposition Zrotation Xrotation Yrotation
                        JOINT RightHandMiddle3
                        {
                          OFFSET -2.47579 0 0
                          CHANNELS 6 Xposition Yposition Zposition Zrotation Xrotation Yrotation
                          End Site
                          {
                            OFFSET -1.975 0 0
                          }
                        }
                      }
                    }
                  }
                  JOINT RightInHandRing
                  {
                    OFFSET -3.36516 0.537895 -0.128947
                    CHANNELS 6 Xposition Yposition Zposition Zrotation Xrotation Yrotation
                    JOINT RightHandRing1
                    {
                      OFFSET -4.63474 -0.022105 -0.478947
                      CHANNELS 6 Xposition Yposition Zposition Zrotation Xrotation Yrotation
                      JOINT RightHandRing2
                      {
                        OFFSET -3.44238 0 0
                        CHANNELS 6 Xposition Yposition Zposition Zrotation Xrotation Yrotation
                        JOINT RightHandRing3
                        {
                          OFFSET -2.3881 0 0
                          CHANNELS 6 Xposition Yposition Zposition Zrotation Xrotation Yrotation
                          End Site
                          {
                            OFFSET -1.857 0 0
                          }
                        }
                      }
                    }
                  }
                  JOINT RightInHandPinky
                  {
                    OFFSET -3.16105 0.469368 -1.20179
                    CHANNELS 6 Xposition Yposition Zposition Zrotation Xrotation Yrotation
                    JOINT RightHandPinky1
                    {
                      OFFSET -4.14105 -0.022105 -1.09053
                      CHANNELS 6 Xposition Yposition Zposition Zrotation Xrotation Yrotation
                      JOINT RightHandPinky2
                      {
                        OFFSET -2.75653 0 0
                        CHANNELS 6 Xposition Yposition Zposition Zrotation Xrotation Yrotation
                        JOINT RightHandPinky3
                        {
                          OFFSET -1.74189 0 0
                          CHANNELS 6 Xposition Yposition Zposition Zrotation Xrotation Yrotation
                          End Site
                          {
                            OFFSET -1.645 0 0
                          }
                        }
                      }
                    }
                  }
                }
              }
            }
          }
          JOINT LeftShoulder
          {
            OFFSET 3.22898 6.91754 -0.00370018
            CHANNELS 6 Xposition Yposition Zposition Zrotation Xrotation Yrotation
            JOINT LeftArm
            {
              OFFSET 12.8251 -0.0146006 -0.0356571
              CHANNELS 6 Xposition Yposition Zposition Zrotation Xrotation Yrotation
              JOINT LeftForeArm
              {
                OFFSET 26.4992 -0.00909523 -0.0494304
                CHANNELS 6 Xposition Yposition Zposition Zrotation Xrotation Yrotation
                JOINT LeftHand
                {
                  OFFSET 26.0042 0.00795665 -0.0187612
                  CHANNELS 6 Xposition Yposition Zposition Zrotation Xrotation Yrotation
                  JOINT LeftHandThumb1
                  {
                    OFFSET 2.48905 0.190105 3.12053
                    CHANNELS 6 Xposition Yposition Zposition Zrotation Xrotation Yrotation
                    JOINT LeftHandThumb2
                    {
                      OFFSET 3.68274 0 0
                      CHANNELS 6 Xposition Yposition Zposition Zrotation Xrotation Yrotation
                      JOINT LeftHandThumb3
                      {
                        OFFSET 2.55832 0 0
                        CHANNELS 6 Xposition Yposition Zposition Zrotation Xrotation Yrotation
                        End Site
                        {
                          OFFSET 2.194 0 0
                        }
                      }
                    }
                  }
                  JOINT LeftInHandIndex
                  {
                    OFFSET 3.22368 0.508421 1.97842
                    CHANNELS 6 Xposition Yposition Zposition Zrotation Xrotation Yrotation
                    JOINT LeftHandIndex1
                    {
                      OFFSET 5.21684 -0.091368 0.999158
                      CHANNELS 6 Xposition Yposition Zposition Zrotation Xrotation Yrotation
                      JOINT LeftHandIndex2
                      {
                        OFFSET 3.61937 0 0
                        CHANNELS 6 Xposition Yposition Zposition Zrotation Xrotation Yrotation
                        JOINT LeftHandIndex3
                        {
                          OFFSET 2.0521 0 0
                          CHANNELS 6 Xposition Yposition Zposition Zrotation Xrotation Yrotation
                          End Site
                          {
                            OFFSET 1.805 0 0
                          }
                        }
                      }
                    }
                  }
                  JOINT LeftInHandMiddle
                  {
                    OFFSET 3.38211 0.517263 0.756737
                    CHANNELS 6 Xposition Yposition Zposition Zrotation Xrotation Yrotation
                    JOINT LeftHandMiddle1
                    {
                      OFFSET 5.17411 -0.084 0.313895
                      CHANNELS 6 Xposition Yposition Zposition Zrotation Xrotation Yrotation
                      JOINT LeftHandMiddle2
                      {
                        OFFSET 3.94947 0 0
                        CHANNELS 6 Xposition Yposition Zposition Zrotation Xrotation Yrotation
                        JOINT LeftHandMiddle3
                        {
                          OFFSET 2.47579 0 0
                          CHANNELS 6 Xposition Yposition Zposition Zrotation Xrotation Yrotation
                          End Site
                          {
                            OFFSET 1.975 0 0
                          }
                        }
                      }
                    }
                  }
                  JOINT LeftInHandRing
                  {
                    OFFSET 3.36516 0.537895 -0.128947
                    CHANNELS 6 Xposition Yposition Zposition Zrotation Xrotation Yrotation
                    JOINT LeftHandRing1
                    {
                      OFFSET 4.63474 -0.022105 -0.478947
                      CHANNELS 6 Xposition Yposition Zposition Zrotation Xrotation Yrotation
                      JOINT LeftHandRing2
                      {
                        OFFSET 3.44238 0 0
                        CHANNELS 6 Xposition Yposition Zposition Zrotation Xrotation Yrotation
                        JOINT LeftHandRing3
                        {
                          OFFSET 2.3881 0 0
                          CHANNELS 6 Xposition Yposition Zposition Zrotation Xrotation Yrotation
                          End Site
                          {
                            OFFSET 1.857 0 0
                          }
                        }
                      }
                    }
                  }
                  JOINT LeftInHandPinky
                  {
                    OFFSET 3.16105 0.469368 -1.20179
                    CHANNELS 6 Xposition Yposition Zposition Zrotation Xrotation Yrotation
                    JOINT LeftHandPinky1
                    {
                      OFFSET 4.14105 -0.022105 -1.09053
                      CHANNELS 6 Xposition Yposition Zposition Zrotation Xrotation Yrotation
                      JOINT LeftHandPinky2
                      {
                        OFFSET 2.75653 0 0
                        CHANNELS 6 Xposition Yposition Zposition Zrotation Xrotation Yrotation
                        JOINT LeftHandPinky3
                        {
                          OFFSET 1.74189 0 0
                          CHANNELS 6 Xposition Yposition Zposition Zrotation Xrotation Yrotation
                          End Site
                          {
                            OFFSET 1.645 0 0
                          }
                        }
                      }
                    }
                  }
                }
              }
            }
          }
        }
      }
    }
  }
}
MOTION
Frames:	3
Frame Time:	0.00833333
355.919 88.6782 209.25 23.2836 13.2409 -70.9403 -9.26382 -1.55446 0.00844472 -17.1262 -51.5673 -18.75 0.0144986 -41.8881 0.0482793 -0.874574 26.0447 -15.6551 0.175356 -43.1511 -0.251331 11.5316 4.73286 26.3621 9.28103 -1.62168 -0.024346 18.479 -42.9032 4.86504 0.0683869 -41.8854 -0.0100271 2.55733 32.0967 0.716886 0.178697 -40.5226 -0.0480906 -13.5085 -13.0475 -16.4781 0.0359255 14.2986 0.00976463 -8.56391 14.169 16.2129 0.0301978 9.70929 0.00161527 -1.76633 3.73192 3.81338 0.0345486 10.1164 0.0148506 -2.93516 5.96069 6.18184 0.0278231 9.7233 0.0199686 -0.0939659 -0.168616 -0.477426 0.0279954 10.3864 0.0305175 -0.0939757 -0.169272 -0.477933 0.00588751 9.4705 0.0157915 -1.97504 -3.22539 -8.34101 -3.17841 6.92762 0.014735 -0.167782 -15.4934 22.2296 -12.7694 0.00449118 0.0308372 72.742 1.87319 52.1212 -26.5029 -0.053552 0.0628787 6.16752 -50.4212 -6.55803 -26.0012 -0.0444617 0.0174965 21.0418 -20.8348 -22.3751 -2.48905 0.190105 3.12053 28.184 10.7294 19.1592 -3.68274 1.42109e-14 5.68434e-14 -3.36982e-15 -7.95139e-16 -10 -2.55832 0 0 2.94921e-15 -1.59028e-15 -10 -3.22368 0.508421 1.97842 -3.18055e-15 0 -0 -5.21684 -0.091368 0.999158 19.9818 0.871897 2.3964 -3.61937 0 0 24 -1.59028e-15 3.18055e-15 -2.0521 1.42109e-14 -2.84217e-14 20 -2.78299e-15 3.18055e-15 -3.38211 0.517263 0.756737 -3.18055e-15 0 -0 -5.17411 -0.084 0.313895 20 -1.11319e-14 9.54166e-15 -3.94947 -2.84217e-14 2.84217e-14 24 7.95139e-16 3.18055e-15 -2.47579 0 0 20 -5.1684e-15 3.18055e-15 -3.36516 0.537895 -0.128947 -3.18055e-15 0 -0 -4.63474 -0.022105 -0.478947 19.9748 -1.02565 -2.81938 -3.44238 -2.84217e-14 5.68434e-14 24 -3.18055e-15 6.36111e-15 -2.3881 0 8.52651e-14 20 -4.17448e-15 -6.36111e-15 -3.16105 0.469368 -1.20179 -3.18055e-15 0 -0 -4.14105 -0.022105 -1.09053 19.7815 -3.00948 -8.30515 -2.75653 -2.84217e-14 0 24 7.95139e-15 -0 -1.74189 1.42109e-14 2.84217e-14 20 1.34614e-14 6.36111e-15 3.22898 6.91754 -0.00370018 13.3664 -13.74 -29.2791 12.8251 -0.0146006 -0.0356571 -38.9496 33.6156 -66.5841 26.4992 -0.00909523 -0.0494304 2.99767 -78.9867 2.8008 26.0042 0.00795665 -0.0187612 -27.0759 -18.9131 10.779 2.48905 0.190105 3.12053 -28.184 10.7294 -19.1592 3.68274 0 0 -5.68566e-15 4.77083e-15 10 2.55832 0 -5.68434e-14 -5.68566e-15 4.77083e-15 10 3.22368 0.508421 1.97842 -9.54166e-15 0 -0 5.21684 -0.091368 0.999158 -19.9818 0.871897 -2.3964 3.61937 2.84217e-14 0 -24 4.37326e-15 1.59028e-14 2.0521 0 2.84217e-14 -20 -3.18055e-15 3.18055e-15 3.38211 0.517263 0.756737 -9.54166e-15 0 -0 5.17411 -0.084 0.313895 -20 -4.77083e-15 1.27222e-14 3.94947 2.84217e-14 -5.68434e-14 -24 -1.19271e-15 1.59028e-14 2.47579 7.10543e-15 0 -20 4.77083e-15 9.54166e-15 3.36516 0.537895 -0.128947 -9.54166e-15 0 -0 4.63474 -0.022105 -0.478947 -19.9748 -1.02565 2.81938 3.44238 2.84217e-14 -2.84217e-14 -24 -3.18055e-15 1.27222e-14 2.3881 3.55271e-15 -2.84217e-14 -20 -3.18055e-15 3.18055e-15 3.16105 0.469368 -1.20179 -9.54166e-15 0 -0 4.14105 -0.022105 -1.09053 -19.7815 -3.00948 8.30515 2.75653 0 -2.84217e-14 -24 5.56597e-15 2.22639e-14 1.74189 -7.10543e-15 0 -20 -1.59028e-15 1.27222e-14 
355.929 88.6779 209.261 23.2995 13.2122 -70.9934 -9.26372 -1.55354 0.00787601 -17.1122 -51.5865 -18.7308 0.0153634 -41.8884 0.0483998 -0.888864 26.0303 -15.6048 0.173036 -43.1549 -0.246476 11.5259 4.74933 26.3596 9.28156 -1.62287 -0.0248187 18.4756 -42.9005 4.88234 0.0688023 -41.8856 -0.0101524 2.53566 32.1139 0.73725 0.181449 -40.5218 -0.0479573 -13.4942 -13.0588 -16.452 0.0368661 14.2985 0.0096426 -8.56686 14.1601 16.2065 0.0305264 9.70928 0.0021843 -1.76658 3.72947 3.81307 0.0348504 10.1164 0.0149125 -2.93524 5.95763 6.18222 0.0279709 9.7233 0.0199873 -0.0944126 -0.167077 -0.477321 0.0283401 10.3864 0.0312778 -0.0944228 -0.167729 -0.47783 0.0183152 9.47052 0.0155479 -1.89245 -3.14206 -8.44252 -3.17806 6.92771 0.0149479 -0.153161 -15.4581 22.2401 -12.7691 0.00507807 0.0322513 72.7351 1.84625 52.1355 -26.5029 -0.0550887 0.0565331 6.28385 -50.418 -6.42598 -26.0012 -0.0373494 0.00366378 21.0426 -20.7281 -22.373 -2.48905 0.190105 3.12053 28.184 10.7294 19.1592 -3.68274 0 0 3.93064e-15 3.97569e-15 -10 -2.55832 0 5.68434e-14 4.07085e-15 4.77083e-15 -10 -3.22368 0.508421 1.97842 6.36111e-15 0 -7.95139e-15 -5.21684 -0.091368 0.999158 19.9818 0.871897 2.3964 -3.61937 0 -5.68434e-14 24 7.15625e-15 1.90833e-14 -2.0521 7.10543e-15 -2.84217e-14 20 1.19271e-15 1.59028e-14 -3.38211 0.517263 0.756737 6.36111e-15 0 -7.95139e-15 -5.17411 -0.084 0.313895 20 4.77083e-15 -6.36111e-15 -3.94947 0 2.84217e-14 24 2.38542e-15 3.18055e-15 -2.47579 -2.13163e-14 0 20 5.1684e-15 6.36111e-15 -3.36516 0.537895 -0.128947 6.36111e-15 0 -7.95139e-15 -4.63474 -0.022105 -0.478947 19.9748 -1.02565 -2.81938 -3.44238 2.84217e-14 -2.84217e-14 24 9.54166e-15 6.36111e-15 -2.3881 2.84217e-14 -2.84217e-14 20 7.7526e-15 1.59028e-14 -3.16105 0.469368 -1.20179 6.36111e-15 0 -7.95139e-15 -4.14105 -0.022105 -1.09053 19.7815 -3.00948 -8.30515 -2.75653 1.42109e-14 -2.84217e-14 24 9.54166e-15 1.59028e-14 -1.74189 1.42109e-14 2.84217e-14 20 -1.75179e-15 9.54166e-15 3.2376 6.91753 -0.0125803 13.4029 -13.7299 -29.3591 12.8279 -0.0216549 -0.0486575 -39.0323 33.5493 -66.5259 26.4992 -0.00889769 -0.0501506 3.1241 -79.0084 2.90243 26.0045 0.00874482 -0.0189142 -27.2301 -18.9443 10.7088 2.48905 0.190105 3.12053 -28.184 10.7294 -19.1592 3.68274 0 2.84217e-14 2.10798e-15 6.36111e-15 10 2.55832 0 0 4.28361e-15 3.18055e-15 10 3.22368 0.508421 1.97842 -3.18055e-15 3.18055e-15 -6.36111e-15 5.21684 -0.091368 0.999158 -19.9818 0.871897 -2.3964 3.61937 0 0 -24 -3.97569e-15 6.36111e-15 2.0521 1.06581e-14 0 -20 -4.77083e-15 6.36111e-15 3.38211 0.517263 0.756737 -3.18055e-15 3.18055e-15 -6.36111e-15 5.17411 -0.084 0.313895 -20 1.59028e-15 1.27222e-14 3.94947 2.84217e-14 -2.84217e-14 -24 -2.78299e-15 1.59028e-14 2.47579 -7.10543e-15 0 -20 1.59028e-15 -0 3.36516 0.537895 -0.128947 -3.18055e-15 3.18055e-15 -6.36111e-15 4.63474 -0.022105 -0.478947 -19.9748 -1.02565 2.81938 3.44238 0 0 -24 1.59028e-15 -0 2.3881 -3.55271e-15 -2.84217e-14 -20 -6.36111e-15 6.36111e-15 3.16105 0.469368 -1.20179 -3.18055e-15 3.18055e-15 -6.36111e-15 4.14105 -0.022105 -1.09053 -19.7815 -3.00948 8.30515 2.75653 -2.84217e-14 0 -24 7.95139e-16 6.36111e-15 1.74189 7.10543e-15 -5.68434e-14 -20 1.59028e-15 -9.54166e-15 
355.939 88.6775 209.273 23.3085 13.1883 -71.0466 -9.2636 -1.55253 0.00726491 -17.085 -51.6044 -18.7056 0.0162287 -41.8887 0.0485075 -0.908189 26.0123 -15.5522 0.166971 -43.1586 -0.242166 11.5201 4.7708 26.3554 9.28209 -1.62413 -0.0252945 18.4766 -42.8909 4.88672 0.0692081 -41.8858 -0.0102744 2.51281 32.1335 0.774276 0.187806 -40.5209 -0.0474909 -13.4813 -13.0768 -16.4306 0.037839 14.2985 0.00952149 -8.56372 14.1546 16.1958 0.0308555 9.70927 0.00276406 -1.76849 3.72682 3.81279 0.0350988 10.1164 0.0149732 -2.93561 5.95432 6.18266 0.0281208 9.7233 0.0200032 -0.0948677 -0.165498 -0.477215 0.0283427 10.3864 0.0320474 -0.0948785 -0.16615 -0.477726 0.0202865 9.47054 0.0153121 -1.87711 -3.09469 -8.46902 -3.17773 6.92779 0.0151735 -0.138389 -15.4253 22.2494 -12.7688 0.00568085 0.0335896 72.7322 1.82253 52.1433 -26.5029 -0.0558857 0.0503004 6.46046 -50.4795 -6.2322 -26.0013 -0.028459 -0.00521706 21.0174 -20.5763 -22.4114 -2.48905 0.190105 3.12053 28.184 10.7294 19.1592 -3.68274 0 0 -3.08942e-15 7.95139e-16 -10 -2.55832 -1.42109e-14 0 3.79044e-15 3.18055e-15 -10 -3.22368 0.508421 1.97842 -3.18055e-15 3.18055e-15 -1.59028e-15 -5.21684 -0.091368 0.999158 19.9818 0.871897 2.3964 -3.61937 0 -2.84217e-14 24 3.97569e-15 6.36111e-15 -2.0521 3.55271e-14 5.68434e-14 20 1.59028e-15 -0 -3.38211 0.517263 0.756737 -3.18055e-15 3.18055e-15 -1.59028e-15 -5.17411 -0.084 0.313895 20 4.77083e-15 6.36111e-15 -3.94947 0 0 24 0 -3.18055e-15 -2.47579 -1.42109e-14 0 20 -2.98177e-15 -0 -3.36516 0.537895 -0.128947 -3.18055e-15 3.18055e-15 -1.59028e-15 -4.63474 -0.022105 -0.478947 19.9748 -1.02565 -2.81938 -3.44238 2.84217e-14 0 24 -3.18055e-15 6.36111e-15 -2.3881 7.10543e-15 -5.68434e-14 20 -2.38542e-15 -6.36111e-15 -3.16105 0.469368 -1.20179 -3.18055e-15 3.18055e-15 -1.59028e-15 -4.14105 -0.022105 -1.09053 19.7815 -3.00948 -8.30515 -2.75653 1.42109e-14 0 24 0 9.54166e-15 -1.74189 1.42109e-14 -2.84217e-14 20 1.2424e-16 -3.18055e-15 3.24088 6.91752 -0.0159341 13.4068 -13.7037 -29.3869 12.8316 -0.0248101 -0.0540728 -39.0372 33.5211 -66.541 26.4992 -0.0147058 -0.0507933 3.40119 -78.9382 3.16788 26.0048 0.00950993 -0.0190659 -27.5441 -19.0832 10.5762 2.48905 0.190105 3.12053 -28.184 10.7294 -19.1592 3.68274 1.42109e-14 2.84217e-14 2.17563e-15 -3.18055e-15 10 2.55832 1.42109e-14 0 7.30047e-15 -4.77083e-15 10 3.22368 0.508421 1.97842 -1.76556e-31 -3.18055e-15 -3.18055e-15 5.21684 -0.091368 0.999158 -19.9818 0.871897 -2.3964 3.61937 -2.84217e-14 0 -24 -2.78299e-15 -1.59028e-14 2.0521 -1.42109e-14 2.84217e-14 -20 3.18055e-15 -9.54166e-15 3.38211 0.517263 0.756737 -1.76556e-31 -3.18055e-15 -3.18055e-15 5.17411 -0.084 0.313895 -20 7.95139e-15 -6.36111e-15 3.94947 2.84217e-14 -2.84217e-14 -24 2.38542e-15 -1.90833e-14 2.47579 1.06581e-14 -5.68434e-14 -20 -6.36111e-15 -1.59028e-14 3.36516 0.537895 -0.128947 -1.76556e-31 -3.18055e-15 -3.18055e-15 4.63474 -0.022105 -0.478947 -19.9748 -1.02565 2.81938 3.44238 0 2.84217e-14 -24 6.36111e-15 -1.27222e-14 2.3881 -3.55271e-15 0 -20 -7.95139e-15 -1.27222e-14 3.16105 0.469368 -1.20179 -1.76556e-31 -3.18055e-15 -3.18055e-15 4.14105 -0.022105 -1.09053 -19.7815 -3.00948 8.30515 2.75653 0 2.84217e-14 -24 -3.18055e-15 -6.36111e-15 1.74189 -2.13163e-14 2.84217e-14 -20 1.11319e-14 -0 
